<?xml version="1.0" standalone="no"?>
<!DOCTYPE svg PUBLIC "-//W3C//DTD SVG 20010904//EN"
 "http://www.w3.org/TR/2001/REC-SVG-20010904/DTD/svg10.dtd">
<svg version="1.0" xmlns="http://www.w3.org/2000/svg"
 width="50.000000pt" height="50.000000pt" viewBox="0 0 50.000000 50.000000"
 preserveAspectRatio="xMidYMid meet">

<g transform="translate(0.000000,50.000000) scale(0.100000,-0.100000)"
fill="#000000" stroke="none">
<path d="M155 456 c-60 -28 -87 -56 -114 -116 -36 -79 -19 -183 42 -249 33
-36 115 -71 167 -71 52 0 134 35 167 71 34 37 63 110 63 159 0 52 -35 134 -71
167 -37 34 -110 63 -159 63 -27 0 -65 -10 -95 -24z m135 -176 c42 -115 43
-120 28 -120 -8 0 -19 13 -25 30 -10 26 -16 30 -48 30 -31 0 -37 -4 -46 -30
-6 -16 -17 -30 -25 -30 -10 0 -4 25 21 95 19 53 35 98 35 101 0 3 7 4 16 2 10
-2 27 -32 44 -78z"/>
<path d="M232 287 c-16 -46 -16 -47 17 -47 29 0 30 1 19 33 -16 48 -23 50 -36
14z"/>
</g>
</svg>
